<?xml version="1.0" encoding="UTF-8" standalone="no"?>
<!-- Created with Inkscape (http://www.inkscape.org/) -->

<svg
   width="118.04883mm"
   height="46.8335mm"
   viewBox="0 0 118.04883 46.8335"
   version="1.1"
   id="svg1"
   inkscape:version="1.4 (86a8ad7, 2024-10-11)"
   sodipodi:docname="LOGO_DORADO_BLANCO_HORIZONTAL.svg"
   xmlns:inkscape="http://www.inkscape.org/namespaces/inkscape"
   xmlns:sodipodi="http://sodipodi.sourceforge.net/DTD/sodipodi-0.dtd"
   xmlns="http://www.w3.org/2000/svg"
   xmlns:svg="http://www.w3.org/2000/svg">
  <sodipodi:namedview
     id="namedview1"
     pagecolor="#505050"
     bordercolor="#eeeeee"
     borderopacity="1"
     inkscape:showpageshadow="0"
     inkscape:pageopacity="0"
     inkscape:pagecheckerboard="0"
     inkscape:deskcolor="#505050"
     inkscape:document-units="mm"
     inkscape:zoom="0.44631734"
     inkscape:cx="221.81527"
     inkscape:cy="455.9536"
     inkscape:window-width="1366"
     inkscape:window-height="697"
     inkscape:window-x="-8"
     inkscape:window-y="-8"
     inkscape:window-maximized="1"
     inkscape:current-layer="layer1" />
  <defs
     id="defs1">
    <clipPath
       clipPathUnits="userSpaceOnUse"
       id="clipPath1111">
      <path
         d="M 0,0 H 628.543 V 46.833 H 0 Z"
         transform="translate(-341.05584,-33.790386)"
         id="path1111" />
    </clipPath>
    <clipPath
       clipPathUnits="userSpaceOnUse"
       id="clipPath1113">
      <path
         d="M 0,0 H 628.543 V 46.833 H 0 Z"
         transform="translate(-348.94734,-31.387311)"
         id="path1113" />
    </clipPath>
    <clipPath
       clipPathUnits="userSpaceOnUse"
       id="clipPath1115">
      <path
         d="M 0,0 H 628.543 V 46.833 H 0 Z"
         transform="translate(-349.69351,-35.754936)"
         id="path1115" />
    </clipPath>
    <clipPath
       clipPathUnits="userSpaceOnUse"
       id="clipPath1117">
      <path
         d="M 0,0 H 628.543 V 46.833 H 0 Z"
         transform="translate(-360.30474,-20.770236)"
         id="path1117" />
    </clipPath>
    <clipPath
       clipPathUnits="userSpaceOnUse"
       id="clipPath1119">
      <path
         d="M 0,0 H 628.543 V 46.833 H 0 Z"
         transform="translate(-352.41331,-23.173311)"
         id="path1119" />
    </clipPath>
    <clipPath
       clipPathUnits="userSpaceOnUse"
       id="clipPath1121">
      <path
         d="M 0,0 H 628.543 V 46.833 H 0 Z"
         transform="translate(-351.66699,-18.805685)"
         id="path1121" />
    </clipPath>
    <clipPath
       clipPathUnits="userSpaceOnUse"
       id="clipPath799">
      <path
         d="M 0,809.008 H 629.008 V 0 H 0 Z"
         transform="translate(-99.6837,-731.18212)"
         id="path799" />
    </clipPath>
    <clipPath
       clipPathUnits="userSpaceOnUse"
       id="clipPath801">
      <path
         d="M 0,809.008 H 629.008 V 0 H 0 Z"
         transform="translate(-109.57781,-731.18212)"
         id="path801" />
    </clipPath>
    <clipPath
       clipPathUnits="userSpaceOnUse"
       id="clipPath803">
      <path
         d="M 0,809.008 H 629.008 V 0 H 0 Z"
         transform="translate(-127.8366,-740.09992)"
         id="path803" />
    </clipPath>
    <clipPath
       clipPathUnits="userSpaceOnUse"
       id="clipPath805">
      <path
         d="M 0,809.008 H 629.008 V 0 H 0 Z"
         transform="translate(-137.06351,-731.18212)"
         id="path805" />
    </clipPath>
    <clipPath
       clipPathUnits="userSpaceOnUse"
       id="clipPath807">
      <path
         d="M 0,809.008 H 629.008 V 0 H 0 Z"
         transform="translate(-154.9805,-737.33352)"
         id="path807" />
    </clipPath>
    <clipPath
       clipPathUnits="userSpaceOnUse"
       id="clipPath809">
      <path
         d="M 0,809.008 H 629.008 V 0 H 0 Z"
         transform="translate(-167.0883,-740.09992)"
         id="path809" />
    </clipPath>
    <clipPath
       clipPathUnits="userSpaceOnUse"
       id="clipPath811">
      <path
         d="M 0,809.008 H 629.008 V 0 H 0 Z"
         transform="translate(-185.4609,-731.18212)"
         id="path811" />
    </clipPath>
    <clipPath
       clipPathUnits="userSpaceOnUse"
       id="clipPath813">
      <path
         d="M 0,809.008 H 629.008 V 0 H 0 Z"
         transform="translate(-95.414902,-713.67632)"
         id="path813" />
    </clipPath>
    <clipPath
       clipPathUnits="userSpaceOnUse"
       id="clipPath815">
      <path
         d="M 0,809.008 H 629.008 V 0 H 0 Z"
         transform="translate(-100.4714,-714.32342)"
         id="path815" />
    </clipPath>
    <clipPath
       clipPathUnits="userSpaceOnUse"
       id="clipPath817">
      <path
         d="M 0,809.008 H 629.008 V 0 H 0 Z"
         transform="translate(-102.81011,-713.67632)"
         id="path817" />
    </clipPath>
    <clipPath
       clipPathUnits="userSpaceOnUse"
       id="clipPath819">
      <path
         d="M 0,809.008 H 629.008 V 0 H 0 Z"
         transform="translate(-108.1116,-715.99662)"
         id="path819" />
    </clipPath>
    <clipPath
       clipPathUnits="userSpaceOnUse"
       id="clipPath821">
      <path
         d="M 0,809.008 H 629.008 V 0 H 0 Z"
         transform="translate(2.5000001e-7,-3.5000001e-5)"
         id="path821" />
    </clipPath>
    <clipPath
       clipPathUnits="userSpaceOnUse"
       id="clipPath823">
      <path
         d="M 0,809.008 H 629.008 V 0 H 0 Z"
         transform="translate(-116.394,-713.67632)"
         id="path823" />
    </clipPath>
    <clipPath
       clipPathUnits="userSpaceOnUse"
       id="clipPath825">
      <path
         d="M 0,809.008 H 629.008 V 0 H 0 Z"
         transform="translate(-121.4505,-714.32342)"
         id="path825" />
    </clipPath>
    <clipPath
       clipPathUnits="userSpaceOnUse"
       id="clipPath827">
      <path
         d="M 0,809.008 H 629.008 V 0 H 0 Z"
         transform="translate(-123.7893,-713.67632)"
         id="path827" />
    </clipPath>
    <clipPath
       clipPathUnits="userSpaceOnUse"
       id="clipPath829">
      <path
         d="M 0,809.008 H 629.008 V 0 H 0 Z"
         transform="translate(-127.9767,-713.67632)"
         id="path829" />
    </clipPath>
    <clipPath
       clipPathUnits="userSpaceOnUse"
       id="clipPath831">
      <path
         d="M 0,809.008 H 629.008 V 0 H 0 Z"
         transform="translate(-98.534602,-750.84052)"
         id="path831" />
    </clipPath>
    <clipPath
       clipPathUnits="userSpaceOnUse"
       id="clipPath833">
      <path
         d="M 0,809.008 H 629.008 V 0 H 0 Z"
         transform="translate(-103.1823,-746.79762)"
         id="path833" />
    </clipPath>
    <clipPath
       clipPathUnits="userSpaceOnUse"
       id="clipPath835">
      <path
         d="M 0,809.008 H 629.008 V 0 H 0 Z"
         transform="translate(-114.5438,-748.74542)"
         id="path835" />
    </clipPath>
    <clipPath
       clipPathUnits="userSpaceOnUse"
       id="clipPath837">
      <path
         d="M 0,809.008 H 629.008 V 0 H 0 Z"
         transform="translate(-118.6311,-750.84052)"
         id="path837" />
    </clipPath>
    <clipPath
       clipPathUnits="userSpaceOnUse"
       id="clipPath839">
      <path
         d="M 0,809.008 H 629.008 V 0 H 0 Z"
         transform="translate(-123.2789,-746.79762)"
         id="path839" />
    </clipPath>
    <clipPath
       clipPathUnits="userSpaceOnUse"
       id="clipPath841">
      <path
         d="M 0,809.008 H 629.008 V 0 H 0 Z"
         transform="translate(-131.81471,-748.03702)"
         id="path841" />
    </clipPath>
    <clipPath
       clipPathUnits="userSpaceOnUse"
       id="clipPath843">
      <path
         d="M 0,809.008 H 629.008 V 0 H 0 Z"
         transform="translate(2.5000001e-7,-3.5000001e-5)"
         id="path843" />
    </clipPath>
    <clipPath
       clipPathUnits="userSpaceOnUse"
       id="clipPath845">
      <path
         d="M 0,809.008 H 629.008 V 0 H 0 Z"
         transform="translate(-142.859,-750.84052)"
         id="path845" />
    </clipPath>
    <clipPath
       clipPathUnits="userSpaceOnUse"
       id="clipPath847">
      <path
         d="M 0,809.008 H 629.008 V 0 H 0 Z"
         transform="translate(2.5000001e-7,-3.5000001e-5)"
         id="path847" />
    </clipPath>
    <clipPath
       clipPathUnits="userSpaceOnUse"
       id="clipPath849">
      <path
         d="M 0,809.008 H 629.008 V 0 H 0 Z"
         transform="translate(-97.9524,-720.51352)"
         id="path849" />
    </clipPath>
    <clipPath
       clipPathUnits="userSpaceOnUse"
       id="clipPath851">
      <path
         d="M 0,809.008 H 629.008 V 0 H 0 Z"
         transform="translate(-101.9459,-723.81372)"
         id="path851" />
    </clipPath>
    <clipPath
       clipPathUnits="userSpaceOnUse"
       id="clipPath853">
      <path
         d="M 0,809.008 H 629.008 V 0 H 0 Z"
         transform="translate(-103.63751,-720.51352)"
         id="path853" />
    </clipPath>
    <clipPath
       clipPathUnits="userSpaceOnUse"
       id="clipPath855">
      <path
         d="M 0,809.008 H 629.008 V 0 H 0 Z"
         transform="translate(-109.3226,-722.81992)"
         id="path855" />
    </clipPath>
    <clipPath
       clipPathUnits="userSpaceOnUse"
       id="clipPath857">
      <path
         d="M 0,809.008 H 629.008 V 0 H 0 Z"
         transform="translate(-111.6983,-720.51352)"
         id="path857" />
    </clipPath>
    <clipPath
       clipPathUnits="userSpaceOnUse"
       id="clipPath859">
      <path
         d="M 0,809.008 H 629.008 V 0 H 0 Z"
         transform="translate(-115.9598,-722.33472)"
         id="path859" />
    </clipPath>
    <clipPath
       clipPathUnits="userSpaceOnUse"
       id="clipPath861">
      <path
         d="M 0,809.008 H 629.008 V 0 H 0 Z"
         transform="translate(-119.80061,-723.04642)"
         id="path861" />
    </clipPath>
    <clipPath
       clipPathUnits="userSpaceOnUse"
       id="clipPath863">
      <path
         d="M 0,809.008 H 629.008 V 0 H 0 Z"
         transform="translate(-127.03391,-721.73382)"
         id="path863" />
    </clipPath>
    <clipPath
       clipPathUnits="userSpaceOnUse"
       id="clipPath865">
      <path
         d="M 0,809.008 H 629.008 V 0 H 0 Z"
         transform="translate(-129.1277,-723.04642)"
         id="path865" />
    </clipPath>
    <clipPath
       clipPathUnits="userSpaceOnUse"
       id="clipPath867">
      <path
         d="M 0,809.008 H 629.008 V 0 H 0 Z"
         transform="translate(-133.70351,-722.81992)"
         id="path867" />
    </clipPath>
    <clipPath
       clipPathUnits="userSpaceOnUse"
       id="clipPath869">
      <path
         d="M 0,809.008 H 629.008 V 0 H 0 Z"
         transform="translate(-136.8788,-723.04642)"
         id="path869" />
    </clipPath>
    <clipPath
       clipPathUnits="userSpaceOnUse"
       id="clipPath871">
      <path
         d="M 0,809.008 H 629.008 V 0 H 0 Z"
         transform="translate(-142.71161,-722.81992)"
         id="path871" />
    </clipPath>
    <clipPath
       clipPathUnits="userSpaceOnUse"
       id="clipPath873">
      <path
         d="M 0,809.008 H 629.008 V 0 H 0 Z"
         transform="translate(-144.2739,-720.51352)"
         id="path873" />
    </clipPath>
    <clipPath
       clipPathUnits="userSpaceOnUse"
       id="clipPath875">
      <path
         d="M 0,809.008 H 629.008 V 0 H 0 Z"
         transform="translate(-149.99111,-720.51352)"
         id="path875" />
    </clipPath>
    <clipPath
       clipPathUnits="userSpaceOnUse"
       id="clipPath877">
      <path
         d="M 0,809.008 H 629.008 V 0 H 0 Z"
         transform="translate(-154.2527,-722.33472)"
         id="path877" />
    </clipPath>
    <clipPath
       clipPathUnits="userSpaceOnUse"
       id="clipPath879">
      <path
         d="M 0,809.008 H 629.008 V 0 H 0 Z"
         transform="translate(-158.09351,-723.04642)"
         id="path879" />
    </clipPath>
    <clipPath
       clipPathUnits="userSpaceOnUse"
       id="clipPath881">
      <path
         d="M 0,809.008 H 629.008 V 0 H 0 Z"
         transform="translate(-163.136,-720.51352)"
         id="path881" />
    </clipPath>
    <clipPath
       clipPathUnits="userSpaceOnUse"
       id="clipPath883">
      <path
         d="M 0,809.008 H 629.008 V 0 H 0 Z"
         transform="translate(-166.88441,-722.81992)"
         id="path883" />
    </clipPath>
    <clipPath
       clipPathUnits="userSpaceOnUse"
       id="clipPath885">
      <path
         d="M 0,809.008 H 629.008 V 0 H 0 Z"
         transform="translate(-169.41731,-721.68762)"
         id="path885" />
    </clipPath>
    <clipPath
       clipPathUnits="userSpaceOnUse"
       id="clipPath887">
      <path
         d="M 0,809.008 H 629.008 V 0 H 0 Z"
         transform="translate(-174.4784,-722.16362)"
         id="path887" />
    </clipPath>
    <clipPath
       clipPathUnits="userSpaceOnUse"
       id="clipPath889">
      <path
         d="M 0,809.008 H 629.008 V 0 H 0 Z"
         transform="translate(-177.6768,-722.33472)"
         id="path889" />
    </clipPath>
    <clipPath
       clipPathUnits="userSpaceOnUse"
       id="clipPath891">
      <path
         d="M 0,809.008 H 629.008 V 0 H 0 Z"
         transform="translate(-183.1586,-720.51352)"
         id="path891" />
    </clipPath>
    <clipPath
       clipPathUnits="userSpaceOnUse"
       id="clipPath893">
      <path
         d="M 0,809.008 H 629.008 V 0 H 0 Z"
         transform="translate(-186.4679,-723.04642)"
         id="path893" />
    </clipPath>
    <clipPath
       clipPathUnits="userSpaceOnUse"
       id="clipPath939">
      <path
         d="M 0,809.008 H 629.008 V 0 H 0 Z"
         transform="translate(-60.537901,-739.94212)"
         id="path939" />
    </clipPath>
  </defs>
  <g
     inkscape:label="Capa 1"
     inkscape:groupmode="layer"
     id="layer1"
     transform="translate(-46.428293,-27.870095)">
    <g
       id="g171"
       transform="matrix(0.61630698,0,0,0.61630698,16.237994,-2.3201207)">
      <path
         id="path75"
         d="m 0,0 v 8.82 h -4.329 v 2.799 H 7.746 V 8.82 H 3.417 V 0 Z"
         style="fill:#d8b587;fill-opacity:1;fill-rule:nonzero;stroke:none"
         transform="matrix(1.3333333,0,0,-1.3333333,121.57301,92.42928)"
         clip-path="url(#clipPath799)" />
      <path
         id="path77"
         d="m 0,0 v 11.619 h 3.417 v -8.82 h 6.656 L 9.715,0 Z"
         style="fill:#d8b587;fill-opacity:1;fill-rule:nonzero;stroke:none"
         transform="matrix(1.3333333,0,0,-1.3333333,134.76515,92.42928)"
         clip-path="url(#clipPath801)" />
      <path
         id="path79"
         d="M 0,0 -1.676,-4.166 H 1.676 Z M 3.548,-8.918 2.669,-6.753 H -2.685 L -3.548,-8.918 H -7.014 L -1.953,2.701 H 2.05 L 7.112,-8.918 Z"
         style="fill:#d8b587;fill-opacity:1;fill-rule:nonzero;stroke:none"
         transform="matrix(1.3333333,0,0,-1.3333333,159.11021,80.53888)"
         clip-path="url(#clipPath803)" />
      <path
         id="path81"
         d="m 0,0 v 11.619 h 3.417 v -8.82 h 6.656 L 9.715,0 Z"
         style="fill:#d8b587;fill-opacity:1;fill-rule:nonzero;stroke:none"
         transform="matrix(1.3333333,0,0,-1.3333333,171.41275,92.42928)"
         clip-path="url(#clipPath805)" />
      <path
         id="path83"
         d="M 0,0 C 0.738,0 1.272,0.116 1.603,0.35 1.934,0.583 2.099,0.96 2.099,1.481 2.099,1.98 1.937,2.343 1.611,2.571 1.286,2.799 0.759,2.913 0.033,2.913 H -2.181 V 0 Z M -5.5,-6.151 V 5.468 H 0.26 C 1.996,5.468 3.295,5.137 4.158,4.475 5.02,3.813 5.452,2.81 5.452,1.465 5.452,0.108 5.009,-0.901 4.125,-1.562 3.241,-2.224 1.888,-2.555 0.065,-2.555 h -2.246 v -3.596 z"
         style="fill:#d8b587;fill-opacity:1;fill-rule:nonzero;stroke:none"
         transform="matrix(1.3333333,0,0,-1.3333333,195.30208,84.227413)"
         clip-path="url(#clipPath807)" />
      <path
         id="path85"
         d="M 0,0 -1.676,-4.166 H 1.676 Z M 3.548,-8.918 2.669,-6.753 H -2.685 L -3.548,-8.918 H -7.014 L -1.953,2.701 H 2.05 L 7.112,-8.918 Z"
         style="fill:#d8b587;fill-opacity:1;fill-rule:nonzero;stroke:none"
         transform="matrix(1.3333333,0,0,-1.3333333,211.44581,80.53888)"
         clip-path="url(#clipPath809)" />
      <path
         id="path87"
         d="M 0,0 -5.891,7.063 V 0 h -3.255 v 11.619 h 3.027 l 5.891,-7.062 v 7.062 H 3.027 V 0 Z"
         style="fill:#d8b587;fill-opacity:1;fill-rule:nonzero;stroke:none"
         transform="matrix(1.3333333,0,0,-1.3333333,235.94261,92.42928)"
         clip-path="url(#clipPath811)" />
      <path
         id="path89"
         d="M 0,0 V 0.661 C 0.345,0.889 0.658,1.1 0.938,1.294 1.2,1.479 1.389,1.621 1.504,1.719 1.62,1.818 1.699,1.904 1.74,1.976 1.782,2.048 1.803,2.126 1.803,2.209 1.803,2.453 1.652,2.574 1.35,2.574 1.195,2.574 1.078,2.541 0.996,2.475 0.914,2.409 0.857,2.302 0.823,2.154 L -0.06,2.237 c 0.055,0.339 0.207,0.598 0.455,0.777 0.248,0.178 0.579,0.268 0.992,0.268 0.274,0 0.511,-0.04 0.711,-0.118 C 2.299,3.085 2.453,2.971 2.563,2.822 2.672,2.672 2.727,2.494 2.727,2.288 2.727,2.081 2.672,1.898 2.563,1.738 2.453,1.578 2.256,1.39 1.969,1.174 1.762,1.017 1.544,0.864 1.313,0.716 H 2.796 L 2.708,0 Z"
         style="fill:#ffffff;fill-opacity:1;fill-rule:nonzero;stroke:none"
         transform="matrix(1.3333333,0,0,-1.3333333,115.88128,115.77035)"
         clip-path="url(#clipPath813)" />
      <path
         id="path91"
         d="m 0,0 c 0.194,0 0.33,0.072 0.407,0.217 0.077,0.145 0.115,0.39 0.115,0.735 0,0.24 -0.017,0.429 -0.051,0.566 C 0.438,1.655 0.384,1.754 0.31,1.814 0.236,1.874 0.136,1.904 0.009,1.904 -0.185,1.904 -0.32,1.832 -0.397,1.687 -0.475,1.542 -0.513,1.297 -0.513,0.952 c 0,-0.24 0.017,-0.429 0.051,-0.566 C -0.428,0.249 -0.374,0.15 -0.3,0.09 -0.226,0.03 -0.126,0 0,0 m -0.009,-0.73 c -0.49,0 -0.853,0.137 -1.089,0.413 -0.235,0.276 -0.353,0.698 -0.353,1.265 0,1.124 0.49,1.686 1.47,1.686 0.489,0 0.852,-0.137 1.088,-0.413 0.236,-0.276 0.354,-0.697 0.354,-1.264 0,-1.125 -0.49,-1.687 -1.47,-1.687"
         style="fill:#ffffff;fill-opacity:1;fill-rule:nonzero;stroke:none"
         transform="matrix(1.3333333,0,0,-1.3333333,122.62328,114.90755)"
         clip-path="url(#clipPath815)" />
      <path
         id="path93"
         d="M 0,0 V 0.661 C 0.345,0.889 0.658,1.1 0.938,1.294 1.2,1.479 1.389,1.621 1.504,1.719 1.62,1.818 1.699,1.904 1.74,1.976 1.782,2.048 1.803,2.126 1.803,2.209 1.803,2.453 1.652,2.574 1.35,2.574 1.195,2.574 1.078,2.541 0.996,2.475 0.914,2.409 0.857,2.302 0.823,2.154 L -0.06,2.237 c 0.055,0.339 0.207,0.598 0.455,0.777 0.248,0.178 0.579,0.268 0.992,0.268 0.274,0 0.511,-0.04 0.711,-0.118 C 2.299,3.085 2.453,2.971 2.563,2.822 2.672,2.672 2.727,2.494 2.727,2.288 2.727,2.081 2.672,1.898 2.563,1.738 2.453,1.578 2.256,1.39 1.969,1.174 1.762,1.017 1.544,0.864 1.313,0.716 H 2.796 L 2.708,0 Z"
         style="fill:#ffffff;fill-opacity:1;fill-rule:nonzero;stroke:none"
         transform="matrix(1.3333333,0,0,-1.3333333,125.74155,115.77035)"
         clip-path="url(#clipPath817)" />
      <path
         id="path95"
         d="M 0,0 -0.948,-1.063 H 0 Z m 0,-2.32 v 0.596 h -1.766 v 0.689 L -0.06,0.874 H 0.841 V -1.063 H 1.303 L 1.225,-1.724 H 0.841 V -2.32 Z"
         style="fill:#ffffff;fill-opacity:1;fill-rule:nonzero;stroke:none"
         transform="matrix(1.3333333,0,0,-1.3333333,132.81021,112.67661)"
         clip-path="url(#clipPath819)" />
      <path
         id="path97"
         d="m 111.865,715.742 h 1.9 v -0.8 h -1.9 z"
         style="fill:#ffffff;fill-opacity:1;fill-rule:nonzero;stroke:none"
         transform="matrix(1.3333333,0,0,-1.3333333,-11.338587,1067.3387)"
         clip-path="url(#clipPath821)" />
      <path
         id="path99"
         d="M 0,0 V 0.661 C 0.345,0.889 0.658,1.1 0.938,1.294 1.2,1.479 1.389,1.621 1.504,1.719 1.62,1.818 1.699,1.904 1.74,1.976 1.782,2.048 1.803,2.126 1.803,2.209 1.803,2.453 1.652,2.574 1.35,2.574 1.195,2.574 1.078,2.541 0.996,2.475 0.914,2.409 0.857,2.302 0.823,2.154 L -0.06,2.237 c 0.055,0.339 0.207,0.598 0.455,0.777 0.248,0.178 0.579,0.268 0.992,0.268 0.274,0 0.511,-0.04 0.711,-0.118 C 2.299,3.085 2.453,2.971 2.563,2.822 2.672,2.672 2.727,2.494 2.727,2.288 2.727,2.081 2.672,1.898 2.563,1.738 2.453,1.578 2.256,1.39 1.969,1.174 1.762,1.017 1.544,0.864 1.313,0.716 H 2.796 L 2.708,0 Z"
         style="fill:#ffffff;fill-opacity:1;fill-rule:nonzero;stroke:none"
         transform="matrix(1.3333333,0,0,-1.3333333,143.85341,115.77035)"
         clip-path="url(#clipPath823)" />
      <path
         id="path101"
         d="m 0,0 c 0.194,0 0.33,0.072 0.407,0.217 0.077,0.145 0.115,0.39 0.115,0.735 0,0.24 -0.017,0.429 -0.051,0.566 C 0.437,1.655 0.384,1.754 0.31,1.814 0.236,1.874 0.136,1.904 0.009,1.904 -0.185,1.904 -0.32,1.832 -0.397,1.687 -0.475,1.542 -0.513,1.297 -0.513,0.952 c 0,-0.24 0.017,-0.429 0.051,-0.566 C -0.428,0.249 -0.374,0.15 -0.3,0.09 -0.226,0.03 -0.126,0 0,0 m -0.009,-0.73 c -0.49,0 -0.853,0.137 -1.089,0.413 -0.235,0.276 -0.353,0.698 -0.353,1.265 0,1.124 0.49,1.686 1.47,1.686 0.489,0 0.852,-0.137 1.088,-0.413 0.236,-0.276 0.354,-0.697 0.354,-1.264 0,-1.125 -0.49,-1.687 -1.47,-1.687"
         style="fill:#ffffff;fill-opacity:1;fill-rule:nonzero;stroke:none"
         transform="matrix(1.3333333,0,0,-1.3333333,150.59541,114.90755)"
         clip-path="url(#clipPath825)" />
      <path
         id="path103"
         d="M 0,0 V 0.661 C 0.345,0.889 0.658,1.1 0.938,1.294 1.2,1.479 1.389,1.621 1.504,1.719 1.62,1.818 1.699,1.904 1.74,1.976 1.782,2.048 1.803,2.126 1.803,2.209 1.803,2.453 1.652,2.574 1.35,2.574 1.195,2.574 1.078,2.541 0.996,2.475 0.914,2.409 0.857,2.302 0.823,2.154 L -0.06,2.237 c 0.055,0.339 0.207,0.598 0.455,0.777 0.248,0.178 0.579,0.268 0.992,0.268 0.274,0 0.511,-0.04 0.711,-0.118 C 2.299,3.085 2.453,2.971 2.563,2.822 2.672,2.672 2.727,2.494 2.727,2.288 2.727,2.081 2.672,1.898 2.563,1.738 2.453,1.578 2.256,1.39 1.969,1.174 1.762,1.017 1.544,0.864 1.313,0.716 H 2.796 L 2.708,0 Z"
         style="fill:#ffffff;fill-opacity:1;fill-rule:nonzero;stroke:none"
         transform="matrix(1.3333333,0,0,-1.3333333,153.71381,115.77035)"
         clip-path="url(#clipPath827)" />
      <path
         id="path105"
         d="M 0,0 C 0.148,0.447 0.326,0.88 0.534,1.299 0.742,1.718 0.968,2.098 1.211,2.44 H -0.545 V 3.194 H 2.223 V 2.538 C 1.952,2.149 1.716,1.753 1.516,1.35 1.316,0.946 1.131,0.496 0.961,0 Z"
         style="fill:#ffffff;fill-opacity:1;fill-rule:nonzero;stroke:none"
         transform="matrix(1.3333333,0,0,-1.3333333,159.29701,115.77035)"
         clip-path="url(#clipPath829)" />
      <path
         id="path107"
         d="M 0,0 -0.76,-1.889 H 0.76 Z M 1.608,-4.043 1.21,-3.062 H -1.217 L -1.608,-4.043 H -3.18 l 2.295,5.268 H 0.93 l 2.294,-5.268 z"
         style="fill:#ffffff;fill-opacity:1;fill-rule:nonzero;stroke:none"
         transform="matrix(1.3333333,0,0,-1.3333333,120.04088,66.21808)"
         clip-path="url(#clipPath831)" />
      <path
         id="path109"
         d="M 0,0 V 5.268 H 1.549 V 1.269 H 4.567 L 4.404,0 Z"
         style="fill:#ffffff;fill-opacity:1;fill-rule:nonzero;stroke:none"
         transform="matrix(1.3333333,0,0,-1.3333333,126.23781,71.608613)"
         clip-path="url(#clipPath833)" />
      <path
         id="path111"
         d="m 0,0 c -0.069,-0.659 -0.352,-1.171 -0.848,-1.535 -0.497,-0.364 -1.161,-0.546 -1.992,-0.546 -0.62,0 -1.156,0.109 -1.609,0.325 -0.452,0.216 -0.803,0.534 -1.051,0.952 -0.248,0.418 -0.373,0.915 -0.373,1.49 0,0.546 0.121,1.028 0.362,1.446 0.241,0.418 0.589,0.743 1.044,0.974 0.455,0.231 1,0.347 1.634,0.347 0.762,0 1.371,-0.155 1.826,-0.465 0.455,-0.31 0.759,-0.777 0.911,-1.402 L -1.645,1.409 c -0.094,0.28 -0.235,0.483 -0.424,0.609 -0.19,0.125 -0.447,0.188 -0.771,0.188 -0.448,0 -0.797,-0.134 -1.048,-0.402 -0.251,-0.268 -0.376,-0.641 -0.376,-1.118 0,-0.482 0.126,-0.856 0.38,-1.121 0.253,-0.266 0.611,-0.399 1.073,-0.399 0.359,0 0.641,0.068 0.845,0.203 0.204,0.135 0.338,0.346 0.402,0.631 z"
         style="fill:#ffffff;fill-opacity:1;fill-rule:nonzero;stroke:none"
         transform="matrix(1.3333333,0,0,-1.3333333,141.38648,69.011547)"
         clip-path="url(#clipPath835)" />
      <path
         id="path113"
         d="M 0,0 -0.76,-1.889 H 0.76 Z M 1.608,-4.043 1.21,-3.062 H -1.217 L -1.608,-4.043 H -3.18 l 2.295,5.268 H 0.93 l 2.294,-5.268 z"
         style="fill:#ffffff;fill-opacity:1;fill-rule:nonzero;stroke:none"
         transform="matrix(1.3333333,0,0,-1.3333333,146.83621,66.21808)"
         clip-path="url(#clipPath837)" />
      <path
         id="path115"
         d="M 0,0 V 5.268 H 1.549 V 1.269 H 4.567 L 4.404,0 Z"
         style="fill:#ffffff;fill-opacity:1;fill-rule:nonzero;stroke:none"
         transform="matrix(1.3333333,0,0,-1.3333333,153.03328,71.608613)"
         clip-path="url(#clipPath839)" />
      <path
         id="path117"
         d="m 0,0 c 1.111,0 1.667,0.467 1.667,1.402 0,0.924 -0.533,1.387 -1.601,1.387 H -0.908 V 0 Z M -2.442,-1.239 V 4.028 H 0.037 C 1.089,4.028 1.887,3.806 2.431,3.36 2.974,2.915 3.246,2.26 3.246,1.394 3.246,0.553 2.961,-0.096 2.39,-0.553 1.82,-1.011 1.011,-1.239 -0.037,-1.239 Z"
         style="fill:#ffffff;fill-opacity:1;fill-rule:nonzero;stroke:none"
         transform="matrix(1.3333333,0,0,-1.3333333,164.41435,69.95608)"
         clip-path="url(#clipPath841)" />
      <path
         id="path119"
         d="m 136.706,752.065 h 1.549 v -5.268 h -1.549 z m 1.262,0.428 h -1.417 l 1.144,1.173 h 1.711 z"
         style="fill:#ffffff;fill-opacity:1;fill-rule:nonzero;stroke:none"
         transform="matrix(1.3333333,0,0,-1.3333333,-11.338587,1067.3387)"
         clip-path="url(#clipPath843)" />
      <path
         id="path121"
         d="M 0,0 -0.76,-1.889 H 0.76 Z M 1.608,-4.043 1.21,-3.062 H -1.217 L -1.608,-4.043 H -3.18 l 2.295,5.268 H 0.93 l 2.294,-5.268 z"
         style="fill:#ffffff;fill-opacity:1;fill-rule:nonzero;stroke:none"
         transform="matrix(1.3333333,0,0,-1.3333333,179.14008,66.21808)"
         clip-path="url(#clipPath845)" />
      <path
         id="path123"
         d="M 95.355,727.074 H 188.9 v -0.486 H 95.355 Z"
         style="fill:#ffffff;fill-opacity:1;fill-rule:nonzero;stroke:none"
         transform="matrix(1.3333333,0,0,-1.3333333,-11.338587,1067.3387)"
         clip-path="url(#clipPath847)" />
      <path
         id="path125"
         d="M 0,0 -1.673,2.006 V 0 h -0.925 v 3.3 h 0.86 L -0.065,1.294 V 3.3 H 0.86 V 0 Z"
         style="fill:#ffffff;fill-opacity:1;fill-rule:nonzero;stroke:none"
         transform="matrix(1.3333333,0,0,-1.3333333,119.26461,106.65408)"
         clip-path="url(#clipPath849)" />
      <path
         id="path127"
         d="m 0,0 h 0.971 v -1.863 c 0,-0.514 -0.139,-0.896 -0.416,-1.146 -0.278,-0.249 -0.703,-0.374 -1.276,-0.374 -0.573,0 -0.998,0.125 -1.276,0.374 -0.277,0.25 -0.416,0.632 -0.416,1.146 V 0 h 0.971 v -1.932 c 0,-0.231 0.058,-0.401 0.173,-0.508 0.116,-0.108 0.298,-0.162 0.548,-0.162 0.25,0 0.432,0.054 0.548,0.162 C -0.058,-2.333 0,-2.163 0,-1.932 Z"
         style="fill:#ffffff;fill-opacity:1;fill-rule:nonzero;stroke:none"
         transform="matrix(1.3333333,0,0,-1.3333333,124.58928,102.25381)"
         clip-path="url(#clipPath851)" />
      <path
         id="path129"
         d="M 0,0 V 3.3 H 2.875 V 2.556 H 0.952 V 2.052 H 2.778 V 1.308 H 0.952 V 0.744 H 2.986 L 2.893,0 Z"
         style="fill:#ffffff;fill-opacity:1;fill-rule:nonzero;stroke:none"
         transform="matrix(1.3333333,0,0,-1.3333333,126.84475,106.65408)"
         clip-path="url(#clipPath853)" />
      <path
         id="path131"
         d="m 0,0 c -0.052,0.129 -0.133,0.223 -0.24,0.28 -0.108,0.057 -0.256,0.085 -0.444,0.085 -0.213,0 -0.374,-0.023 -0.483,-0.069 -0.109,-0.046 -0.164,-0.114 -0.164,-0.204 0,-0.083 0.029,-0.144 0.088,-0.184 0.058,-0.041 0.172,-0.074 0.342,-0.102 L -0.19,-0.31 c 0.429,-0.068 0.738,-0.182 0.927,-0.344 0.19,-0.162 0.284,-0.388 0.284,-0.677 0,-0.348 -0.14,-0.612 -0.42,-0.791 C 0.32,-2.3 -0.094,-2.39 -0.642,-2.39 c -0.549,0 -0.967,0.097 -1.255,0.292 -0.289,0.194 -0.451,0.486 -0.488,0.878 h 0.971 c 0.03,-0.157 0.107,-0.273 0.231,-0.347 0.123,-0.074 0.303,-0.111 0.541,-0.111 0.221,0 0.392,0.028 0.513,0.083 0.12,0.056 0.18,0.134 0.18,0.236 0,0.077 -0.033,0.137 -0.1,0.18 -0.066,0.043 -0.181,0.077 -0.344,0.102 l -0.587,0.088 c -0.453,0.068 -0.784,0.186 -0.994,0.356 -0.209,0.169 -0.314,0.402 -0.314,0.698 0,0.317 0.145,0.565 0.435,0.744 0.289,0.179 0.69,0.268 1.201,0.268 0.475,0 0.842,-0.082 1.103,-0.245 0.26,-0.163 0.419,-0.41 0.478,-0.74 z"
         style="fill:#ffffff;fill-opacity:1;fill-rule:nonzero;stroke:none"
         transform="matrix(1.3333333,0,0,-1.3333333,134.42488,103.57888)"
         clip-path="url(#clipPath855)" />
      <path
         id="path133"
         d="M 0,0 V 2.505 H -1.229 V 3.3 H 2.2 V 2.505 H 0.971 V 0 Z"
         style="fill:#ffffff;fill-opacity:1;fill-rule:nonzero;stroke:none"
         transform="matrix(1.3333333,0,0,-1.3333333,137.59248,106.65408)"
         clip-path="url(#clipPath857)" />
      <path
         id="path135"
         d="m 0,0 c 0.21,0 0.362,0.031 0.458,0.092 0.095,0.062 0.143,0.162 0.143,0.301 0,0.135 -0.046,0.233 -0.137,0.293 -0.09,0.06 -0.242,0.09 -0.455,0.09 H -0.712 V 0 Z m 0.707,-1.821 -0.661,1.118 h -0.758 v -1.118 h -0.915 v 3.3 H 0.06 c 0.983,0 1.474,-0.365 1.474,-1.095 0,-0.219 -0.047,-0.402 -0.143,-0.548 C 1.296,-0.311 1.149,-0.428 0.952,-0.518 l 0.809,-1.303 z"
         style="fill:#ffffff;fill-opacity:1;fill-rule:nonzero;stroke:none"
         transform="matrix(1.3333333,0,0,-1.3333333,143.27448,104.22581)"
         clip-path="url(#clipPath859)" />
      <path
         id="path137"
         d="m 0,0 -0.476,-1.183 h 0.952 z m 1.008,-2.533 -0.25,0.615 h -1.521 l -0.245,-0.615 h -0.984 l 1.437,3.3 h 1.137 l 1.438,-3.3 z"
         style="fill:#ffffff;fill-opacity:1;fill-rule:nonzero;stroke:none"
         transform="matrix(1.3333333,0,0,-1.3333333,148.39555,103.27688)"
         clip-path="url(#clipPath861)" />
      <path
         id="path139"
         d="m 0,0 c -0.043,-0.413 -0.22,-0.733 -0.532,-0.962 -0.311,-0.227 -0.727,-0.341 -1.247,-0.341 -0.389,0 -0.725,0.067 -1.008,0.203 -0.284,0.135 -0.503,0.334 -0.659,0.596 -0.155,0.262 -0.233,0.573 -0.233,0.934 0,0.342 0.075,0.644 0.226,0.906 0.151,0.262 0.369,0.465 0.654,0.61 0.285,0.145 0.627,0.217 1.024,0.217 0.478,0 0.859,-0.097 1.144,-0.291 0.285,-0.194 0.475,-0.487 0.571,-0.878 L -1.031,0.883 c -0.058,0.175 -0.147,0.303 -0.266,0.381 -0.118,0.079 -0.279,0.118 -0.482,0.118 -0.281,0 -0.5,-0.084 -0.657,-0.252 -0.157,-0.168 -0.236,-0.401 -0.236,-0.7 0,-0.302 0.08,-0.536 0.239,-0.703 0.158,-0.166 0.382,-0.249 0.672,-0.249 0.225,0 0.401,0.042 0.529,0.127 0.128,0.084 0.212,0.216 0.252,0.395 z"
         style="fill:#ffffff;fill-opacity:1;fill-rule:nonzero;stroke:none"
         transform="matrix(1.3333333,0,0,-1.3333333,158.03995,105.02701)"
         clip-path="url(#clipPath863)" />
      <path
         id="path141"
         d="m 0,0 -0.476,-1.183 h 0.952 z m 1.008,-2.533 -0.25,0.615 h -1.521 l -0.245,-0.615 h -0.984 l 1.437,3.3 h 1.137 l 1.438,-3.3 z"
         style="fill:#ffffff;fill-opacity:1;fill-rule:nonzero;stroke:none"
         transform="matrix(1.3333333,0,0,-1.3333333,160.83168,103.27688)"
         clip-path="url(#clipPath865)" />
      <path
         id="path143"
         d="m 0,0 c -0.052,0.129 -0.133,0.223 -0.24,0.28 -0.108,0.057 -0.256,0.085 -0.444,0.085 -0.213,0 -0.374,-0.023 -0.483,-0.069 -0.109,-0.046 -0.164,-0.114 -0.164,-0.204 0,-0.083 0.029,-0.144 0.088,-0.184 0.058,-0.041 0.172,-0.074 0.342,-0.102 L -0.19,-0.31 c 0.429,-0.068 0.738,-0.182 0.927,-0.344 0.19,-0.162 0.284,-0.388 0.284,-0.677 0,-0.348 -0.14,-0.612 -0.42,-0.791 C 0.32,-2.3 -0.094,-2.39 -0.642,-2.39 c -0.549,0 -0.967,0.097 -1.255,0.292 -0.289,0.194 -0.451,0.486 -0.488,0.878 h 0.971 c 0.03,-0.157 0.107,-0.273 0.231,-0.347 0.123,-0.074 0.303,-0.111 0.541,-0.111 0.221,0 0.392,0.028 0.513,0.083 0.12,0.056 0.18,0.134 0.18,0.236 0,0.077 -0.033,0.137 -0.1,0.18 -0.066,0.043 -0.181,0.077 -0.344,0.102 l -0.587,0.088 c -0.453,0.068 -0.784,0.186 -0.994,0.356 -0.209,0.169 -0.314,0.402 -0.314,0.698 0,0.317 0.145,0.565 0.435,0.744 0.289,0.179 0.69,0.268 1.201,0.268 0.475,0 0.842,-0.082 1.103,-0.245 0.26,-0.163 0.419,-0.41 0.478,-0.74 z"
         style="fill:#ffffff;fill-opacity:1;fill-rule:nonzero;stroke:none"
         transform="matrix(1.3333333,0,0,-1.3333333,166.93275,103.57888)"
         clip-path="url(#clipPath867)" />
      <path
         id="path145"
         d="m 0,0 -0.476,-1.183 h 0.952 z m 1.008,-2.533 -0.25,0.615 h -1.521 l -0.245,-0.615 h -0.984 l 1.437,3.3 h 1.137 l 1.438,-3.3 z"
         style="fill:#ffffff;fill-opacity:1;fill-rule:nonzero;stroke:none"
         transform="matrix(1.3333333,0,0,-1.3333333,171.16648,103.27688)"
         clip-path="url(#clipPath869)" />
      <path
         id="path147"
         d="m 0,0 c -0.052,0.129 -0.133,0.223 -0.24,0.28 -0.108,0.057 -0.256,0.085 -0.444,0.085 -0.213,0 -0.374,-0.023 -0.483,-0.069 -0.109,-0.046 -0.164,-0.114 -0.164,-0.204 0,-0.083 0.029,-0.144 0.088,-0.184 0.058,-0.041 0.172,-0.074 0.342,-0.102 L -0.19,-0.31 c 0.429,-0.068 0.738,-0.182 0.927,-0.344 0.19,-0.162 0.284,-0.388 0.284,-0.677 0,-0.348 -0.14,-0.612 -0.42,-0.791 C 0.32,-2.3 -0.094,-2.39 -0.642,-2.39 c -0.549,0 -0.967,0.097 -1.255,0.292 -0.289,0.194 -0.451,0.486 -0.488,0.878 h 0.971 c 0.03,-0.157 0.107,-0.273 0.231,-0.347 0.123,-0.074 0.303,-0.111 0.541,-0.111 0.221,0 0.392,0.028 0.513,0.083 0.12,0.056 0.18,0.134 0.18,0.236 0,0.077 -0.033,0.137 -0.1,0.18 -0.066,0.043 -0.181,0.077 -0.344,0.102 l -0.587,0.088 c -0.453,0.068 -0.784,0.186 -0.994,0.356 -0.209,0.169 -0.314,0.402 -0.314,0.698 0,0.317 0.145,0.565 0.435,0.744 0.289,0.179 0.69,0.268 1.201,0.268 0.475,0 0.842,-0.082 1.103,-0.245 0.26,-0.163 0.419,-0.41 0.478,-0.74 z"
         style="fill:#ffffff;fill-opacity:1;fill-rule:nonzero;stroke:none"
         transform="matrix(1.3333333,0,0,-1.3333333,178.94355,103.57888)"
         clip-path="url(#clipPath871)" />
      <path
         id="path149"
         d="M 0,0 V 3.3 H 2.875 V 2.556 H 0.952 V 2.052 H 2.778 V 1.308 H 0.952 V 0.744 H 2.986 L 2.893,0 Z"
         style="fill:#ffffff;fill-opacity:1;fill-rule:nonzero;stroke:none"
         transform="matrix(1.3333333,0,0,-1.3333333,181.02661,106.65408)"
         clip-path="url(#clipPath873)" />
      <path
         id="path151"
         d="M 0,0 V 2.505 H -1.229 V 3.3 H 2.2 V 2.505 H 0.971 V 0 Z"
         style="fill:#ffffff;fill-opacity:1;fill-rule:nonzero;stroke:none"
         transform="matrix(1.3333333,0,0,-1.3333333,188.64955,106.65408)"
         clip-path="url(#clipPath875)" />
      <path
         id="path153"
         d="m 0,0 c 0.21,0 0.362,0.031 0.458,0.092 0.095,0.062 0.143,0.162 0.143,0.301 0,0.135 -0.046,0.233 -0.137,0.293 -0.09,0.06 -0.242,0.09 -0.455,0.09 H -0.712 V 0 Z m 0.707,-1.821 -0.661,1.118 h -0.758 v -1.118 h -0.915 v 3.3 H 0.06 c 0.983,0 1.474,-0.365 1.474,-1.095 0,-0.219 -0.047,-0.402 -0.143,-0.548 C 1.296,-0.311 1.149,-0.428 0.952,-0.518 l 0.809,-1.303 z"
         style="fill:#ffffff;fill-opacity:1;fill-rule:nonzero;stroke:none"
         transform="matrix(1.3333333,0,0,-1.3333333,194.33168,104.22581)"
         clip-path="url(#clipPath877)" />
      <path
         id="path155"
         d="m 0,0 -0.476,-1.183 h 0.952 z m 1.008,-2.533 -0.25,0.615 h -1.521 l -0.245,-0.615 h -0.984 l 1.437,3.3 h 1.137 l 1.438,-3.3 z"
         style="fill:#ffffff;fill-opacity:1;fill-rule:nonzero;stroke:none"
         transform="matrix(1.3333333,0,0,-1.3333333,199.45275,103.27688)"
         clip-path="url(#clipPath879)" />
      <path
         id="path157"
         d="M 0,0 -1.673,2.006 V 0 h -0.925 v 3.3 h 0.86 L -0.065,1.294 V 3.3 H 0.86 V 0 Z"
         style="fill:#ffffff;fill-opacity:1;fill-rule:nonzero;stroke:none"
         transform="matrix(1.3333333,0,0,-1.3333333,206.17608,106.65408)"
         clip-path="url(#clipPath881)" />
      <path
         id="path159"
         d="m 0,0 c -0.052,0.129 -0.133,0.223 -0.24,0.28 -0.108,0.057 -0.256,0.085 -0.444,0.085 -0.213,0 -0.374,-0.023 -0.483,-0.069 -0.109,-0.046 -0.164,-0.114 -0.164,-0.204 0,-0.083 0.029,-0.144 0.088,-0.184 0.058,-0.041 0.172,-0.074 0.342,-0.102 L -0.19,-0.31 c 0.429,-0.068 0.738,-0.182 0.927,-0.344 0.19,-0.162 0.284,-0.388 0.284,-0.677 0,-0.348 -0.14,-0.612 -0.42,-0.791 C 0.32,-2.3 -0.094,-2.39 -0.642,-2.39 c -0.549,0 -0.967,0.097 -1.255,0.292 -0.289,0.194 -0.451,0.486 -0.488,0.878 h 0.971 c 0.03,-0.157 0.107,-0.273 0.231,-0.347 0.123,-0.074 0.303,-0.111 0.541,-0.111 0.221,0 0.392,0.028 0.513,0.083 0.12,0.056 0.18,0.134 0.18,0.236 0,0.077 -0.033,0.137 -0.1,0.18 -0.066,0.043 -0.181,0.077 -0.344,0.102 l -0.587,0.088 c -0.453,0.068 -0.784,0.186 -0.994,0.356 -0.209,0.169 -0.314,0.402 -0.314,0.698 0,0.317 0.145,0.565 0.435,0.744 0.289,0.179 0.69,0.268 1.201,0.268 0.475,0 0.842,-0.082 1.103,-0.245 0.26,-0.163 0.419,-0.41 0.478,-0.74 z"
         style="fill:#ffffff;fill-opacity:1;fill-rule:nonzero;stroke:none"
         transform="matrix(1.3333333,0,0,-1.3333333,211.17395,103.57888)"
         clip-path="url(#clipPath883)" />
      <path
         id="path161"
         d="m 0,0 v -1.174 h -0.971 v 3.3 H 1.77 V 1.359 H 0 V 0.767 H 1.673 V 0 Z"
         style="fill:#ffffff;fill-opacity:1;fill-rule:nonzero;stroke:none"
         transform="matrix(1.3333333,0,0,-1.3333333,214.55115,105.08861)"
         clip-path="url(#clipPath885)" />
      <path
         id="path163"
         d="M 0,0 C 0,0.302 -0.083,0.536 -0.25,0.703 -0.416,0.869 -0.652,0.952 -0.957,0.952 -1.262,0.952 -1.498,0.869 -1.666,0.703 -1.834,0.536 -1.918,0.302 -1.918,0 c 0,-0.302 0.083,-0.536 0.249,-0.703 0.167,-0.166 0.403,-0.249 0.708,-0.249 0.305,0 0.541,0.083 0.709,0.249 C -0.084,-0.536 0,-0.302 0,0 m 1.008,0 c 0,-0.351 -0.078,-0.657 -0.234,-0.918 -0.156,-0.26 -0.382,-0.461 -0.679,-0.603 -0.298,-0.141 -0.653,-0.212 -1.066,-0.212 -0.397,0 -0.742,0.068 -1.035,0.203 -0.293,0.136 -0.519,0.334 -0.679,0.594 -0.161,0.26 -0.241,0.572 -0.241,0.936 0,0.351 0.078,0.657 0.234,0.917 0.155,0.261 0.382,0.462 0.679,0.604 0.297,0.141 0.653,0.212 1.065,0.212 0.398,0 0.743,-0.068 1.036,-0.203 C 0.38,1.394 0.607,1.196 0.767,0.936 0.927,0.675 1.008,0.364 1.008,0"
         style="fill:#ffffff;fill-opacity:1;fill-rule:nonzero;stroke:none"
         transform="matrix(1.3333333,0,0,-1.3333333,221.29928,104.45395)"
         clip-path="url(#clipPath887)" />
      <path
         id="path165"
         d="m 0,0 c 0.21,0 0.362,0.031 0.458,0.092 0.095,0.062 0.143,0.162 0.143,0.301 0,0.135 -0.046,0.233 -0.137,0.293 -0.09,0.06 -0.242,0.09 -0.455,0.09 H -0.712 V 0 Z m 0.707,-1.821 -0.661,1.118 h -0.758 v -1.118 h -0.915 v 3.3 H 0.06 c 0.983,0 1.474,-0.365 1.474,-1.095 0,-0.219 -0.047,-0.402 -0.143,-0.548 C 1.296,-0.311 1.149,-0.428 0.952,-0.518 l 0.809,-1.303 z"
         style="fill:#ffffff;fill-opacity:1;fill-rule:nonzero;stroke:none"
         transform="matrix(1.3333333,0,0,-1.3333333,225.56381,104.22581)"
         clip-path="url(#clipPath889)" />
      <path
         id="path167"
         d="M 0,0 V 1.923 L -0.855,0 H -1.567 L -2.422,1.914 V 0 H -3.3 v 3.3 h 1.095 L -1.192,1.054 -0.185,3.3 H 0.892 V 0 Z"
         style="fill:#ffffff;fill-opacity:1;fill-rule:nonzero;stroke:none"
         transform="matrix(1.3333333,0,0,-1.3333333,232.87288,106.65408)"
         clip-path="url(#clipPath891)" />
      <path
         id="path169"
         d="m 0,0 -0.476,-1.183 h 0.952 z m 1.008,-2.533 -0.25,0.615 h -1.521 l -0.245,-0.615 h -0.984 l 1.437,3.3 h 1.137 l 1.438,-3.3 z"
         style="fill:#ffffff;fill-opacity:1;fill-rule:nonzero;stroke:none"
         transform="matrix(1.3333333,0,0,-1.3333333,237.28528,103.27688)"
         clip-path="url(#clipPath893)" />
      <path
         id="path171"
         clip-path="url(#clipPath939)"
         style="fill:#d8b587;fill-opacity:1;fill-rule:nonzero;stroke:none"
         transform="matrix(1.3333333,0,0,-1.3333333,69.378613,80.74928)"
         d="m 0,0 z m 2.3973001,12.9522 c -0.876,-0.479 -2.14900004,-1.7 -2.40400004,-3.5539997 l -0.004,0.001 c -0.002,-0.029 -0.006,-0.057 -0.008,-0.086 -0.009,-0.077 -0.016,-0.157 -0.022,-0.237 -0.35,-3.093 -2.55299996,-4.753 -2.57599996,-4.77 l 0.724,-0.991 c 0.081,0.059 1.43799996,1.071 2.33799996,3.004 0.92500004,-3.25 -0.424,-6.27299998 -0.44500000007,-6.31899997619 L 1.1143001,-0.51479968 c 0.071,0.153 1.719,3.79699998 0.343,7.70699998 -0.238,0.675 -0.309,1.272 -0.273,1.794 0.005,0.049 0.009,0.099 0.013,0.148 0.17,1.5559997 1.288,2.4159997 1.666,2.6659997 h 1.803 v 1.227 h -2.132 z M 0.55710001,-0.25760026 1.0001393e-4,3.9974356e-4 c 0,-0.001 0,-0.001 0,-0.001 z M 4.3440985,15.811917 h -1.228 v -1.73 h 1.228 z M 20.390701,-4.1211001 h -1.556 c -0.109,0 -0.21,0.055 -0.27,0.146 l -1.718,2.616 -1.718,-2.616 c -0.06,-0.091 -0.161,-0.146 -0.27,-0.146 h -0.342 c -0.109,0 -0.21,0.055 -0.27,0.146 l -1.425,2.17 c -0.065,0.099 -0.071,0.226 -0.014,0.331 0.056,0.104 0.165,0.169 0.284,0.169 h 0.602 l -1.165,1.774 -1.165,-1.774 h 0.602 c 0.119,0 0.228,-0.065 0.284,-0.169 0.056,-0.105 0.051,-0.232 -0.014,-0.331 l -1.425,-2.17 c -0.06,-0.091 -0.161,-0.146 -0.27,-0.146 h -0.342 c -0.109,0 -0.2100005,0.055 -0.2700005,0.146 l -1.425,2.17 c -0.065,0.099 -0.071,0.226 -0.014,0.331 0.056,0.104 0.165,0.169 0.284,0.169 h 0.602 l -1.115,1.698 c -0.027,0.041 -0.044,0.087 -0.05,0.134 -0.006,-0.047 -0.023,-0.093 -0.05,-0.134 l -1.115,-1.698 h 0.602 c 0.119,0 0.228,-0.065 0.284,-0.169 0.057,-0.105 0.051,-0.232 -0.014,-0.331 l -1.425,-2.17 c -0.06,-0.091 -0.161,-0.146 -0.27,-0.146 h -1.409 -0.147 -0.323 V 10.7749 h -1.227 V -4.1211001 h -0.336 H 0.83670051 -12.943299 c -0.178,0 -0.323,0.145 -0.323,0.323 V 13.7709 c 0,0.132 0.08,0.25 0.202,0.299 5.3549995,2.172 11.0029995,3.273 16.7879995,3.273 5.785,0 11.4330005,-1.101 16.7880005,-3.273 0.122,-0.049 0.202,-0.167 0.202,-0.299 V 4.9558999 c 0,-0.111 -0.057,-0.215 -0.152,-0.274 -0.094,-0.059 -0.213,-0.065 -0.313,-0.016 l -2.587,1.262 c -0.054,0.027 -0.099,0.067 -0.131,0.117 l -1.276,2.004 -3.948,1.927 -1.692,-0.777 -0.091,-0.113 c -1.1460005,-1.414 -3.1060005,-2.256 -4.3080005,-2.665 v -1.304 c 1.076,0.333 3.601,1.264 5.1320005,3.022 0.03,0.035 0.067,0.063 0.108,0.082 l 0.696,0.319 c 0.088,0.041 0.189,0.039 0.276,-0.003 l 2.887,-1.409 c 0.054,-0.026 0.099,-0.066 0.131,-0.117 l 0.806,-1.265 c 0.074,-0.118 0.066,-0.269 -0.022,-0.377 l -0.134,-0.165 c -0.64,-0.79 -1.629,-1.347 -2.439,-1.702 l 0.463,-1.15 c 0.886,0.385 2,1.003 2.8,1.906 0.029,0.033 0.066,0.06 0.107,0.079 l 0.411,0.189 c 0.088,0.041 0.19,0.039 0.277,-0.003 l 2.107,-1.028 c 0.054,-0.027 0.099,-0.067 0.131,-0.117 l 0.71,-1.116 c 0.033,-0.052 0.051,-0.112 0.051,-0.174 v -5.886 c 0,-0.178 -0.145,-0.323 -0.323,-0.323 m 1.563,-9.4589999 v 27.979 l -0.012,0.421 -0.512,0.213 c -5.639,2.356 -11.5960005,3.55 -17.7060005,3.55 -6.11,0 -12.068,-1.194 -17.7059995,-3.549 l -0.524,-0.219 v -28.395 l 1.24,0.135 v 7.7609999 c 0,0.178 0.145,0.323 0.323,0.323 h 33.334 c 0.178,0 0.323,-0.145 0.323,-0.323 V -13.4451 Z m -11.0542,25.856301 c 0.584,0 1.059,0.475 1.059,1.059 0,0.585 -0.475,1.06 -1.059,1.06 -0.584,0 -1.0590005,-0.475 -1.0590005,-1.06 0,-0.584 0.4750005,-1.059 1.0590005,-1.059 M 7.5258002,0.89360027 h 0.365 c 0.119,0 0.228,-0.065 0.284,-0.17 0.019,-0.034 0.031,-0.071 0.036,-0.109 0.005,0.038 0.017,0.075 0.036,0.109 0.056,0.105 0.165,0.17 0.284,0.17 h 0.365 l -0.685,1.04300003 z M -11.7914,20.087301 c 0.147,-0.45 0.563,-0.752 1.037,-0.752 0.115,0 0.229,0.018 0.339,0.054 0.278,0.091 0.5030002,0.284 0.6350002,0.544 0.131,0.26 0.154,0.555 0.063,0.832 -0.09,0.278 -0.2830002,0.503 -0.5430002,0.635 -0.155,0.079 -0.323,0.119 -0.492,0.119 -0.114,0 -0.229,-0.018 -0.34,-0.055 -0.278,-0.091 -0.503,-0.284 -0.635,-0.544 -0.132,-0.26 -0.155,-0.555 -0.064,-0.833 0,0 0,0 0,0 m 15.5116003,1.5534 h 10e-4 c 0.603,0 1.091,0.488 1.092,1.089 0.001,0.602 -0.488,1.092 -1.09,1.093 h -10e-4 c -0.292,0 -0.565,-0.113 -0.771,-0.319 -0.207,-0.205 -0.321,-0.479 -0.321,-0.771 v 0 c 0,-0.291 0.113,-0.565 0.319,-0.772 0.206,-0.206 0.48,-0.32 0.771,-0.32 M 17.859401,19.3897 c 0.11,-0.035 0.224,-0.054 0.339,-0.054 0.473,0 0.89,0.303 1.037,0.753 0.186,0.569 -0.122,1.182 -0.688,1.373 -0.004,0.001 -0.007,0.002 -0.011,0.003 -0.277,0.091 -0.573,0.068 -0.832,-0.064 -0.26,-0.132 -0.453,-0.357 -0.544,-0.634 -0.186,-0.572 0.127,-1.19 0.699,-1.377 m -0.9923,-45.612903 c -0.022,-0.104 -0.093,-0.19 -0.191,-0.231 l -2.779,-1.163 c -0.156,-0.065 -0.335,0 -0.412,0.15 l -1.442,2.797 c -0.46,-0.117 -0.909,-0.202 -1.259,-0.263 l 1.53,-2.969 c 0.041,-0.08 0.047,-0.173 0.016,-0.258 -0.031,-0.085 -0.096,-0.153 -0.179,-0.187 l -2.8280003,-1.184 c -0.089,-0.037 -0.189,-0.033 -0.274,0.011 -0.085,0.044 -0.146,0.124 -0.166,0.218 l -0.878,4.024 c -0.403,-0.033 -0.821,-0.062 -1.251,-0.086 l 0.991,-4.541 c 0.033,-0.152 -0.047,-0.306 -0.191,-0.367 l -2.77,-1.159 c -0.041,-0.017 -0.083,-0.025 -0.125,-0.025 -0.063,0 -0.125,0.018 -0.179,0.054 -0.09,0.06 -0.144,0.161 -0.144,0.269 v 5.69 c -0.412,-0.005 -0.829,-0.005 -1.24,0 v -5.69 c 0,-0.108 -0.054,-0.209 -0.144,-0.269 -0.09,-0.06 -0.204,-0.071 -0.304,-0.029 l -2.77000003,1.159 c -0.144,0.061 -0.224,0.215 -0.191,0.367 l 0.991,4.542 c -0.43,0.024 -0.848,0.053 -1.25,0.087 l -0.87899997,-4.026 c -0.02,-0.094 -0.081,-0.174 -0.166,-0.218 -0.085,-0.044 -0.186,-0.048 -0.274,-0.011 l -2.828,1.183 c -0.084,0.035 -0.148,0.103 -0.179,0.188 -0.031,0.085 -0.025,0.178 0.016,0.258 l 1.531,2.972 c -0.352,0.061 -0.8,0.147 -1.259,0.264 l -1.443,-2.801 c -0.077,-0.15 -0.256,-0.215 -0.412,-0.15 l -2.768,1.159 c -0.098,0.041 -0.169,0.127 -0.191,0.23 -0.022,0.104 0.008,0.212 0.081,0.289 l 3.921,4.157 c 0.098,0.104 0.252,0.131 0.38,0.067 0.645,-0.323 1.582,-0.507 2.327,-0.631 1.72499997,-0.288 4.012,-0.447 6.439,-0.447 2.427,0 4.713,0.159 6.4380003,0.447 0.745,0.124 1.682,0.308 2.327,0.631 0.128,0.064 0.282,0.037 0.38,-0.067 l 3.917,-4.152 c 0.073,-0.077 0.103,-0.185 0.081,-0.289 m -20.1140003,5.853 c 0.802,0.171 3.08699997,0.568 6.971,0.568 3.884,0 6.168,-0.397 6.9700003,-0.568 0.149,-0.032 0.256,-0.163 0.256,-0.316 0,-0.152 -0.107,-0.284 -0.256,-0.316 -0.8020003,-0.171 -3.0860003,-0.568 -6.9700003,-0.568 -3.88400003,0 -6.169,0.397 -6.971,0.568 -0.149,0.032 -0.256,0.164 -0.256,0.316 0,0.153 0.107,0.284 0.256,0.316 m 19.5980003,-0.213 h 4.029 c 0.088,0 0.171,-0.035 0.232,-0.098 0.061,-0.062 0.094,-0.147 0.091,-0.234 -0.054,-1.775 -0.876,-3.429 -2.256,-4.539 -0.132,-0.106 -0.322,-0.093 -0.438,0.03 l -4.721,5.005 c -0.026,0.027 -0.047,0.059 -0.062,0.093 -0.322,0.749 -1.729,1.078 -3.064,1.301 -1.7250003,0.287 -4.0110003,0.446 -6.4380003,0.446 -2.427,0 -4.71400003,-0.159 -6.439,-0.446 -1.335,-0.223 -2.742,-0.552 -3.064,-1.301 -0.015,-0.034 -0.036,-0.066 -0.062,-0.093 l -4.7279997,-5.012 c -0.115,-0.122 -0.305,-0.136 -0.437,-0.03 -1.386,1.11 -2.211,2.767 -2.265,4.546 -0.003,0.087 0.03,0.172 0.091,0.234 0.061,0.063 0.144,0.098 0.232,0.098 h 4.0279997 l 1.1,1.24 h -6.6939997 v -1.386 c 0,-2.954 1.761,-5.6 4.486,-6.741 l 13.6189997,-5.7 h 0.249 l 13.6200003,5.7 c 2.725,1.141 4.486,3.787 4.486,6.741 v 1.386 h -6.695 z M 7.3061004,21.495801 c 0.001,0 0.003,0 0.004,0 0.03,-0.003 0.06,-0.004 0.089,-0.004 0.565,0 1.042,0.442 1.086,1.005 0.048,0.6 -0.401,1.127 -1.001,1.175 -0.599,0.046 -1.127,-0.402 -1.174,-1.002 v 0 c -0.048,-0.598 0.398,-1.124 0.996,-1.174 m 3.5736006,-0.4239 c 0.057,-0.009 0.115,-0.014 0.173,-0.014 0.539,0 0.992,0.387 1.076,0.92 0.094,0.595 -0.313,1.156 -0.906,1.25 -0.595,0.095 -1.155,-0.313 -1.2500005,-0.908 -0.094,-0.594 0.3130005,-1.154 0.9070005,-1.248 M 0.1326,21.5011 c 0.289,0.023 0.553,0.158 0.743,0.379 0.189,0.222 0.281,0.504 0.258,0.794 -0.023,0.291 -0.158,0.556 -0.379,0.745 -0.222,0.189 -0.505,0.281 -0.795,0.258 -0.291,-0.023 -0.555,-0.157 -0.744,-0.379 -0.189,-0.222 -0.281,-0.504 -0.258,-0.794 0.046,-0.593 0.565,-1.049 1.175,-1.003 m -7.3492997,-1.1607 c 0.089,0 0.175,0.01 0.257,0.03 0.586,0.142 0.947,0.733 0.806,1.319 -0.142,0.584 -0.733,0.945 -1.318,0.803 -0.585,-0.141 -0.946,-0.733 -0.804,-1.318 0.119,-0.491 0.554,-0.834 1.059,-0.834 m 2.5312996,1.6416 c 0.084,-0.533 0.537,-0.919 1.076,-0.919 0.059,0 0.115,0.004 0.172,0.013 0.596,0.096 1.002,0.656 0.907,1.25 -0.085,0.537 -0.55,0.92 -1.077,0.92 -0.057,0 -0.115,-0.004 -0.172,-0.014 -0.288,-0.046 -0.541,-0.201 -0.712,-0.437 -0.171,-0.236 -0.24,-0.524 -0.194,-0.812 0,-0.001 0,-0.001 0,-0.001 m 1.2332003,-9.705799 c 0.584,0 1.059,0.475 1.059,1.059 0,0.585 -0.475,1.06 -1.059,1.06 -0.584,0 -1.059,-0.475 -1.059,-1.06 0,-0.584 0.475,-1.059 1.059,-1.059 M 14.403,20.369001 c 0.083,-0.02 0.169,-0.031 0.256,-0.031 0.506,0 0.942,0.344 1.06,0.836 0.068,0.284 0.022,0.578 -0.13,0.826 -0.152,0.249 -0.392,0.423 -0.675,0.492 -0.086,0.02 -0.172,0.03 -0.258,0.03 -0.198,0 -0.393,-0.054 -0.567,-0.161 -0.249,-0.152 -0.423,-0.392 -0.491,-0.676 v 0 c -0.141,-0.585 0.22,-1.175 0.805,-1.316 M -4.0008001,9.0654002 l -2.501,-4.484 v 0 c -0.346,-0.62 -0.528,-1.322 -0.528,-2.031 v -2.56999997 c 0,-0.575 -0.468,-1.04300003 -1.043,-1.04300003 -0.527,0 -0.972,0.39000003 -1.035,0.90800003 -0.38,3.08099997 -0.201,5.70399997 0.015,7.36199997 0.076,0.58 0.442,1.08 0.979,1.338 1.311,0.629 2.597,0.966 3.822,1 0.116,0.003 0.225,-0.056 0.285,-0.155 0.06,-0.099 0.063,-0.224 0.006,-0.325 m 1.313,1.0619998 c -0.22,0.392 -0.62,0.637 -1.071,0.655 v 0 c -0.105,0.004 -0.214,0.006 -0.325,0.006 -1.474,0 -3.011,-0.379 -4.567,-1.1249998 -0.916,-0.44 -1.5409999,-1.298 -1.6709999,-2.295 -0.226,-1.729 -0.412,-4.465 -0.017,-7.67399997 0.14,-1.13900003 1.1139999,-1.99700003 2.2659999,-1.99700003 1.258,0 2.283,1.024 2.283,2.28300003 V 2.5504002 c 0,0.498 0.128,0.992 0.371,1.427 l 2.733,4.9 c 0.218,0.392 0.218,0.859 -0.002,1.2499998 m -7.1144001,0.7047 c 1.004,0.597 2.089,1.036 3.226,1.304 l 0.144,0.033 c 0.174,0.041 0.321,0.147 0.414,0.299 0.094,0.151 0.123,0.33 0.082,0.504 -0.04,0.174 -0.147,0.321 -0.298,0.415 -0.152,0.093 -0.331,0.122 -0.504,0.081 l -0.144,-0.034 c -1.269,-0.299 -2.481,-0.788 -3.6019998,-1.455 -0.316,-0.188 -0.421,-0.598 -0.233,-0.915 0.122,-0.204 0.337,-0.326 0.575,-0.326 0.119,0 0.2369998,0.033 0.3399998,0.094 M 18.027101,-15.186203 c -0.069,-0.09 -0.18,-0.138 -0.292,-0.126 -8.164,0.88 -13.772,0.822 -14.007,0.819 -0.003,0 -0.005,0 -0.008,0 -0.237,0.003 -5.906,0.054 -14.008,-0.819 -0.011,-0.002 -0.023,-0.002 -0.034,-0.002 -0.101,0 -0.196,0.047 -0.258,0.128 -0.068,0.09 -0.084,0.21 -0.042,0.315 l 0.446,1.11 c 0.043,0.105 0.137,0.18 0.249,0.198 7.737,1.232 13.403,1.186 13.641,1.184 l 0.014,-10e-4 c 0.06,10e-4 5.77,0.071 13.646,-1.183 0.112,-0.018 0.207,-0.093 0.249,-0.198 l 0.446,-1.11 c 0.042,-0.105 0.026,-0.225 -0.042,-0.315 m -25.187,3.76 0.408,1.015 c 0.043,0.105 0.137,0.18 0.249,0.198 2.346,0.3720001 4.73,0.6470001 7.08499995,0.8180001 2.08500005,0.151 4.19900005,0.151 6.28300005,0 2.355,-0.171 4.739,-0.446 7.085,-0.8180001 0.112,-0.018 0.207,-0.093 0.249,-0.198 l 0.409,-1.016 c 0.042,-0.106 0.026,-0.227 -0.044,-0.317 -0.062,-0.08 -0.157,-0.126 -0.256,-0.126 -0.014,0 -0.027,10e-4 -0.041,0.002 -5.999,0.756 -10.093,0.734 -10.54,0.728 -0.184,0.003 -4.39800005,0.047 -10.547,-0.728 -0.114,-0.014 -0.226,0.033 -0.296,0.124 -0.07,0.09 -0.087,0.211 -0.044,0.318 m 26.761,-3.931 -1.157,2.876 -0.344,0.056 c -0.553,0.091 -1.121,0.18 -1.688,0.264 -0.114,0.017 -0.21,0.092 -0.253,0.199 l -1.139,2.8310001 -0.344,0.057 c -2.44,0.402 -4.934,0.702 -7.411,0.891 -0.123,0.01 -0.23,0.088 -0.275,0.202 l -0.202,0.501 c -2.042,0.14 -4.1,0.14 -6.13300005,0 l -0.201,-0.502 c -0.046,-0.114 -0.153,-0.192 -0.275,-0.201 -2.47599995,-0.189 -4.96899995,-0.489 -7.40799995,-0.891 l -0.344,-0.057 -1.139,-2.8310001 c -0.043,-0.107 -0.139,-0.182 -0.253,-0.199 -0.568,-0.084 -1.136,-0.173 -1.688,-0.264 l -0.344,-0.056 -1.157,-2.876 c -0.044,-0.109 -0.144,-0.185 -0.261,-0.2 -0.699,-0.085 -1.404,-0.176 -2.099,-0.271 v -1.449 c 10.217,1.411 17.897,1.353 18.222,1.349 h 0.02 0.007 c 0.031,10e-4 0.131,0.002 0.294,0.002 1.534,0 8.691,-0.075 17.932,-1.351 v 1.449 c -0.694,0.094 -1.399,0.186 -2.099,0.271 -0.117,0.015 -0.217,0.091 -0.261,0.2 M -14.3096,18.0604 c 0.069,-0.007 0.141,-0.007 0.213,0 0.035,0.004 0.07,0.009 0.104,0.016 0.038,0.007 0.07,0.015 0.101,0.025 0.041,0.012 0.075,0.025 0.109,0.038 0.027,0.012 0.061,0.028 0.092,0.045 0.032,0.016 0.062,0.034 0.091,0.053 0.033,0.022 0.062,0.044 0.089,0.066 0.026,0.021 0.052,0.044 0.075,0.068 0.207,0.206 0.324,0.487 0.324,0.775 0,0.035 -0.002,0.071 -0.006,0.107 -0.004,0.033 -0.008,0.068 -0.016,0.103 -0.007,0.039 -0.015,0.071 -0.025,0.103 -0.012,0.038 -0.025,0.074 -0.039,0.108 -0.011,0.027 -0.027,0.061 -0.044,0.093 -0.017,0.032 -0.036,0.063 -0.056,0.094 -0.018,0.027 -0.039,0.055 -0.06,0.081 -0.025,0.031 -0.049,0.057 -0.075,0.083 -0.026,0.027 -0.052,0.05 -0.078,0.071 -0.027,0.022 -0.056,0.043 -0.085,0.062 -0.033,0.022 -0.063,0.041 -0.094,0.057 -0.03,0.016 -0.062,0.031 -0.093,0.044 -0.037,0.015 -0.07,0.027 -0.103,0.037 -0.035,0.011 -0.071,0.02 -0.107,0.027 -0.03,0.006 -0.068,0.012 -0.105,0.016 -0.069,0.006 -0.143,0.006 -0.216,0 -0.032,-0.004 -0.07,-0.01 -0.106,-0.017 -0.031,-0.006 -0.067,-0.015 -0.102,-0.026 -0.033,-0.01 -0.066,-0.022 -0.097,-0.035 -0.037,-0.015 -0.069,-0.03 -0.099,-0.046 -0.032,-0.017 -0.063,-0.036 -0.093,-0.056 -0.03,-0.02 -0.059,-0.041 -0.086,-0.063 -0.026,-0.021 -0.052,-0.044 -0.075,-0.068 -0.029,-0.029 -0.053,-0.056 -0.075,-0.083 -0.025,-0.03 -0.046,-0.059 -0.067,-0.089 -0.017,-0.026 -0.035,-0.057 -0.052,-0.089 -0.016,-0.03 -0.031,-0.061 -0.044,-0.093 -0.016,-0.038 -0.028,-0.071 -0.038,-0.104 -0.01,-0.034 -0.019,-0.07 -0.026,-0.107 -0.008,-0.035 -0.013,-0.07 -0.016,-0.104 -0.004,-0.035 -0.005,-0.071 -0.005,-0.106 0,-0.036 0.001,-0.071 0.005,-0.107 0.003,-0.034 0.008,-0.069 0.015,-0.104 0.008,-0.036 0.017,-0.072 0.027,-0.106 0.011,-0.035 0.023,-0.068 0.037,-0.101 0.014,-0.035 0.029,-0.066 0.045,-0.096 0.016,-0.031 0.034,-0.062 0.053,-0.09 0.021,-0.03 0.043,-0.06 0.066,-0.089 0.021,-0.026 0.044,-0.052 0.068,-0.075 0.03,-0.031 0.056,-0.054 0.082,-0.075 0.027,-0.022 0.056,-0.044 0.085,-0.063 0.031,-0.021 0.062,-0.039 0.094,-0.056 0.031,-0.017 0.064,-0.032 0.096,-0.046 0.033,-0.013 0.066,-0.025 0.1,-0.035 0.037,-0.012 0.07,-0.02 0.102,-0.026 0.04,-0.008 0.075,-0.013 0.11,-0.017 m 37.046501,1.1925 c -0.003,0.034 -0.008,0.069 -0.016,0.103 -0.007,0.041 -0.017,0.075 -0.027,0.109 -0.01,0.033 -0.023,0.068 -0.036,0.102 -0.012,0.028 -0.028,0.062 -0.045,0.093 -0.017,0.032 -0.035,0.063 -0.055,0.094 -0.018,0.026 -0.039,0.054 -0.061,0.081 -0.025,0.031 -0.049,0.058 -0.074,0.083 -0.025,0.025 -0.05,0.048 -0.077,0.069 -0.032,0.027 -0.059,0.046 -0.087,0.065 -0.032,0.022 -0.063,0.04 -0.094,0.057 -0.03,0.016 -0.062,0.031 -0.093,0.043 -0.037,0.016 -0.069,0.028 -0.102,0.038 -0.037,0.01 -0.073,0.019 -0.109,0.027 -0.03,0.005 -0.067,0.012 -0.105,0.016 -0.033,0.003 -0.068,0.004 -0.104,0.004 -0.036,0 -0.074,-10e-4 -0.111,-0.005 -0.033,-0.003 -0.071,-0.009 -0.107,-0.016 -0.029,-0.006 -0.065,-0.016 -0.101,-0.026 -0.033,-0.01 -0.066,-0.022 -0.097,-0.036 -0.037,-0.014 -0.069,-0.029 -0.099,-0.045 -0.031,-0.017 -0.062,-0.035 -0.09,-0.055 -0.033,-0.021 -0.062,-0.042 -0.089,-0.064 -0.027,-0.022 -0.052,-0.045 -0.076,-0.069 -0.028,-0.028 -0.052,-0.055 -0.074,-0.082 -0.024,-0.029 -0.045,-0.057 -0.064,-0.085 -0.019,-0.03 -0.038,-0.062 -0.055,-0.094 -0.017,-0.032 -0.033,-0.065 -0.047,-0.099 -0.011,-0.027 -0.024,-0.063 -0.035,-0.098 -0.009,-0.032 -0.019,-0.066 -0.025,-0.1 -0.008,-0.04 -0.013,-0.076 -0.017,-0.111 -0.004,-0.035 -0.006,-0.071 -0.006,-0.106 0,-0.035 0.002,-0.07 0.006,-0.105 0.004,-0.036 0.009,-0.071 0.016,-0.106 0.007,-0.039 0.017,-0.073 0.026,-0.105 0.012,-0.038 0.025,-0.073 0.038,-0.108 0.011,-0.025 0.027,-0.057 0.044,-0.09 0.016,-0.03 0.034,-0.061 0.054,-0.09 0.021,-0.032 0.042,-0.061 0.065,-0.088 0.021,-0.027 0.044,-0.052 0.068,-0.076 0.03,-0.03 0.055,-0.053 0.081,-0.074 0.028,-0.023 0.057,-0.044 0.086,-0.064 0.032,-0.021 0.063,-0.039 0.094,-0.056 0.032,-0.017 0.065,-0.032 0.099,-0.046 0.028,-0.011 0.062,-0.024 0.097,-0.035 0.038,-0.012 0.07,-0.02 0.102,-0.026 0.039,-0.008 0.074,-0.013 0.109,-0.016 0.071,-0.008 0.143,-0.008 0.213,0 0.035,0.003 0.071,0.008 0.107,0.015 0.035,0.007 0.067,0.015 0.099,0.026 0.041,0.012 0.075,0.025 0.108,0.038 0.029,0.012 0.062,0.027 0.093,0.044 0.032,0.017 0.063,0.035 0.091,0.054 0.032,0.021 0.059,0.041 0.085,0.063 0.033,0.026 0.058,0.049 0.082,0.074 0.028,0.027 0.051,0.052 0.072,0.078 0.024,0.029 0.045,0.059 0.066,0.09 0.019,0.028 0.037,0.059 0.053,0.09 0.017,0.031 0.033,0.064 0.047,0.097 0.01,0.028 0.024,0.062 0.034,0.098 0.011,0.034 0.02,0.068 0.026,0.101 0.009,0.041 0.013,0.076 0.017,0.111 0.004,0.035 0.005,0.071 0.005,0.106 0,0.036 -10e-4,0.072 -0.005,0.107" />
    </g>
  </g>
</svg>
